<?xml version="1.0" encoding="UTF-8" standalone="no"?><!DOCTYPE svg PUBLIC "-//W3C//DTD SVG 1.1//EN" "http://www.w3.org/Graphics/SVG/1.1/DTD/svg11.dtd"><svg width="100%" height="100%" viewBox="0 0 240 240" version="1.1" xmlns="http://www.w3.org/2000/svg" xmlns:xlink="http://www.w3.org/1999/xlink" xml:space="preserve" xmlns:serif="http://www.serif.com/" style="fill-rule:evenodd;clip-rule:evenodd;stroke-linejoin:round;stroke-miterlimit:2;"><path d="M193.454,149.864c-1.495,3.686 0.277,7.891 3.967,9.386c3.686,1.495 7.891,-0.277 9.386,-3.967c13.731,-33.822 6.889,-74.068 -20.563,-101.524c-36.586,-36.586 -95.899,-36.586 -132.485,0c-36.586,36.586 -36.586,95.899 -0,132.485c27.455,27.455 67.698,34.294 101.524,20.563c3.69,-1.499 5.462,-5.7 3.967,-9.386c-1.499,-3.686 -5.7,-5.462 -9.386,-3.967c-28.648,11.631 -62.694,5.815 -85.912,-17.403c-30.958,-30.958 -30.954,-81.145 -0,-112.103c30.958,-30.958 81.145,-30.958 112.103,0c23.215,23.215 29.03,57.264 17.403,85.912l-0.004,0.004Z" style="fill:#fff;fill-rule:nonzero;"/><path d="M182.851,193.04c2.814,2.814 7.375,2.814 10.189,0c2.814,-2.814 2.814,-7.375 0,-10.189l-27.174,-27.174c-2.814,-2.814 -7.375,-2.814 -10.189,0c-2.814,2.814 -2.814,7.375 0,10.189l27.174,27.174Z" style="fill:#fff;fill-rule:nonzero;"/></svg>