<svg xmlns="http://www.w3.org/2000/svg">
  <defs>
    <symbol id="brand" viewBox="0 0 412 412">
      <g transform="matrix(1,0,0,1,604.607,194.034)">
        <g transform="matrix(1,0,0,1,-331.8,16.33)">
            <path d="M0,83.231L-63.499,46.568L-123.354,81.126L-123.354,52.887L-31.75,0L31.749,36.66L63.501,18.331L87.955,32.449L0,83.231Z" style="fill:rgb(255,196,0);fill-rule:nonzero;"/>
        </g>
        <g transform="matrix(1,0,0,1,-486.902,10.015)">
            <path d="M0,4.208L63.499,-32.453L63.499,-101.562L87.928,-87.463L88.043,18.277L24.454,54.99L24.454,91.651L0,105.77L0,4.208Z" style="fill:rgb(42,164,153);fill-rule:nonzero;"/>
        </g>
        <g transform="matrix(1,0,0,1,-335.448,-6.213)">
            <path d="M0,-71.217L0,2.106L59.854,36.662L35.396,50.781L-56.157,-2.078L-56.237,-75.449L-87.955,-93.755L-87.955,-121.998L0,-71.217Z" style="fill:rgb(239,97,41);fill-rule:nonzero;"/>
        </g>
        <g transform="matrix(1,0,0,1,-300.051,-128.214)">
            <path d="M0,136.12L-28.103,119.895L-28.103,50.784L59.858,0L59.94,101.514L0,136.12Z" style="fill:rgb(236,77,1);fill-rule:nonzero;"/>
        </g>
        <g transform="matrix(-0.866025,0.500001,0.500001,0.866025,-407.972,-90.55)">
            <path d="M-164.126,43.978L-62.564,43.978L-11.784,-43.978L-113.346,-43.978L-164.126,43.978Z" style="fill:rgb(255,122,44);fill-rule:nonzero;"/>
        </g>
        <g transform="matrix(1,0,0,1,-430.697,-26.65)">
            <path d="M0,-32.449L0,0.001L-59.853,34.556L-147.808,-16.224L-59.853,-67.005L0,-32.449Z" style="fill:rgb(72,226,206);fill-rule:nonzero;"/>
        </g>
        <g transform="matrix(0.866025,0.500001,0.500001,-0.866025,-538.174,-48.341)">
            <path d="M-32.194,-32.194L69.368,-32.194L120.149,-120.149L18.587,-120.149L-32.194,-32.194Z" style="fill:rgb(80,196,182);fill-rule:nonzero;"/>
        </g>
        <g transform="matrix(1,0,0,1,-423.403,191.213)">
            <path d="M0,-103.668L28.104,-119.893L87.955,-85.336L87.955,16.225L0,-34.556L0,-103.668Z" style="fill:rgb(255,158,0);fill-rule:nonzero;"/>
        </g>
        <g transform="matrix(0,-1,-1,0,-207.96,175.287)">
            <path d="M-32.151,120.195L69.411,120.195L120.195,32.233L18.681,32.151L-32.151,120.195Z" style="fill:rgb(247,134,0);fill-rule:nonzero;"/>
        </g>
    </g>
    </symbol>
  </defs>

  <defs>
    <symbol id="urrad" viewBox="0 0 900 900">
    <g transform="matrix(1,0,0,1,-293.029,-56.5)">
        <path d="M756.942,197.15L756.942,474C701.751,474 656.942,518.808 656.942,574C656.942,629.192 701.751,674 756.942,674L756.942,777L495.122,777C443.175,777 401,734.825 401,682.878L401,614L364.755,614C353.852,614 345,605.148 345,594.245L345,436.814C345,425.878 353.878,417 364.814,417L401,417L401,365.122C401,313.175 443.175,271 495.122,271L715.058,271L715.058,197.15C696.492,189.056 683.5,170.533 683.5,149C683.5,120.024 707.024,96.5 736,96.5C764.976,96.5 788.5,120.024 788.5,149C788.5,170.533 775.508,189.056 756.942,197.15ZM559,388C520.918,388 490,418.918 490,457C490,495.082 520.918,526 559,526C597.082,526 628,495.082 628,457C628,418.918 597.082,388 559,388Z" style="fill:rgb(173,71,255);"/>
        <g transform="matrix(-1,1.22465e-16,-1.22465e-16,-1,1486.06,1043)">
            <path d="M401,417L401,348.122C401,296.175 443.175,254 495.122,254L705.058,254L705.058,357C760.249,357 805.058,401.808 805.058,457C805.058,512.192 760.249,557 705.058,557L705.058,760L495.122,760C443.175,760 401,717.825 401,665.878L401,614L364.755,614C353.852,614 345,605.148 345,594.245L345,436.814C345,425.878 353.878,417 364.814,417L401,417ZM552,643C590.082,643 621,612.082 621,574C621,535.918 590.082,505 552,505C513.918,505 483,535.918 483,574C483,612.082 513.918,643 552,643Z" style="fill:rgb(0,213,189);"/>
        </g>
    </g>
    </symbol>
  </defs>
</svg>
