<?xml version="1.0" encoding="UTF-8" standalone="no"?>
<!DOCTYPE svg PUBLIC "-//W3C//DTD SVG 1.1//EN" "http://www.w3.org/Graphics/SVG/1.1/DTD/svg11.dtd">
<svg width="100%" height="100%" viewBox="0 0 1000 1000" version="1.1" xmlns="http://www.w3.org/2000/svg" xmlns:xlink="http://www.w3.org/1999/xlink" xml:space="preserve" xmlns:serif="http://www.serif.com/" style="fill-rule:evenodd;clip-rule:evenodd;stroke-linejoin:round;stroke-miterlimit:2;">
    <g id="corona-color" transform="matrix(1.04011,0,0,1.04011,-31.323189,-9.968915)" mask="url(#corona-mask)">
        <g>
            <g transform="matrix(1.141677,0,0,1.253945,8.939727,56.138229)">
                <circle cx="310.5" cy="342.5" r="310.5" style="fill:url(#teal-glow);"/>
            </g>
            <g transform="matrix(-0.570839,0.988721,-1.085948,-0.626972,1159.308602,271.259126)">
                <circle cx="310.5" cy="342.5" r="310.5" style="fill:url(#red-glow);"/>
            </g>
            <g transform="matrix(-0.570839,-0.988721,1.085948,-0.626972,415.434126,1158.217003)">
                <circle cx="310.5" cy="342.5" r="310.5" style="fill:url(#yellow-glow);"/>
            </g>
        </g>
    </g>
    <mask id="corona-mask" maskUnits="userSpaceOnUse" maskContentUnits="userSpaceOnUse" x="-250" y="-250" width="1500" height="1500">
        <g transform="matrix(1.04011,0,0,1.04011,-31.323189,-9.968915)" filter="url(#corona-mask-blur)">
            <g transform="matrix(0.965926,0.258819,-0.258819,0.965926,281.105223,-213.268958)">
                <g>
                    <path d="M398.5,214L478.674,418.944L626.466,384.534L592.056,532.326L797,612.5L592.056,692.674L626.466,840.466L478.674,806.056L398.5,1011L318.326,806.056L170.534,840.466L204.944,692.674L0,612.5L204.944,532.326L170.534,384.534L318.326,418.944L398.5,214Z" style="fill:url(#_Radial3);">
                        <animate attributeName="d" dur="30s" begin="-6s" repeatCount="indefinite" keyTimes="0;0.5;1" values="M398.5,214L478.674,418.944L626.466,384.534L592.056,532.326L797,612.5L592.056,692.674L626.466,840.466L478.674,806.056L398.5,1011L318.326,806.056L170.534,840.466L204.944,692.674L0,612.5L204.944,532.326L170.534,384.534L318.326,418.944L398.5,214Z;M398.5,302.411L459.342,465.616L551.372,459.628L542.089,553.023L669.276,612.5L470.446,642.301L462.672,676.672L447.375,730.494L398.5,959.624L337.248,760.374L254.826,756.174L268.973,666.152L167.793,612.5L334.909,586.16L314.362,528.362L338.457,467.544L398.5,244.091Z;M398.5,214L478.674,418.944L626.466,384.534L592.056,532.326L797,612.5L592.056,692.674L626.466,840.466L478.674,806.056L398.5,1011L318.326,806.056L170.534,840.466L204.944,692.674L0,612.5L204.944,532.326L170.534,384.534L318.326,418.944L398.5,214Z"/>
                    </path>
                    <animate attributeName="opacity" values="0.4;0.2;0.4" keyTimes="0;0.5;1" dur="8s" begin="-4s" repeatCount="indefinite"/>
                    <!-- <animateTransform attributeName="transform" attributeType="XML" type="rotate" values="0 398.5 612.5;14 398.5 612.5;-14 398.5 612.5;0 398.5 612.5" keyTimes="0;0.33;0.66;1" dur="36s" begin="-8s" repeatCount="indefinite"/> -->
                </g>
            </g>
            <g transform="matrix(1,0,0,1,109,-131)">
                <g>
                    <path d="M398.5,214L423.753,404.524L475.654,299.475L472.791,416.611L583.692,259.646L517.512,440.082L612.286,371.185L555.316,473.573L726.459,386.126L584.006,515.139L699.943,498.178L601.916,562.362L794.094,564.466L608.004,612.5L718.543,651.36L601.916,662.638L771.104,753.81L584.006,709.861L663.824,795.64L555.316,751.427L662.754,910.782L517.512,784.918L548.324,897.965L472.791,808.389L493.867,999.42L423.753,820.476L398.5,934.893L373.247,820.476L303.133,999.42L324.209,808.389L248.676,897.965L279.488,784.918L134.246,910.782L241.684,751.427L133.176,795.64L212.994,709.861L25.896,753.81L195.084,662.638L78.457,651.36L188.996,612.5L2.906,564.466L195.084,562.362L97.057,498.178L212.994,515.139L70.541,386.126L241.684,473.573L184.714,371.185L279.488,440.082L213.308,259.646L324.209,416.611L321.346,299.475L373.247,404.524L398.5,214Z" style="fill:url(#_Radial3);">
                        <animate attributeName="d" dur="36s" begin="-3s" repeatCount="indefinite" keyTimes="0;0.5;1" values="M398.5,214L423.753,404.524L475.654,299.475L472.791,416.611L583.692,259.646L517.512,440.082L612.286,371.185L555.316,473.573L726.459,386.126L584.006,515.139L699.943,498.178L601.916,562.362L794.094,564.466L608.004,612.5L718.543,651.36L601.916,662.638L771.104,753.81L584.006,709.861L663.824,795.64L555.316,751.427L662.754,910.782L517.512,784.918L548.324,897.965L472.791,808.389L493.867,999.42L423.753,820.476L398.5,934.893L373.247,820.476L303.133,999.42L324.209,808.389L248.676,897.965L279.488,784.918L134.246,910.782L241.684,751.427L133.176,795.64L212.994,709.861L25.896,753.81L195.084,662.638L78.457,651.36L188.996,612.5L2.906,564.466L195.084,562.362L97.057,498.178L212.994,515.139L70.541,386.126L241.684,473.573L184.714,371.185L279.488,440.082L213.308,259.646L324.209,416.611L321.346,299.475L373.247,404.524L398.5,214Z;M398.5,275.082L417.272,457.896L450.504,401.512L450.327,475.845L515.059,390.416L450.509,537.152L478.251,522.479L488.405,532.851L662.971,429.949L550.755,532.591L612.061,531.507L537.856,578.151L676.002,578.805L518.983,612.5L522.461,627.551L481.972,633.074L643.361,705.364L552.876,693.523L606.093,755.791L506.649,708.312L584.526,822.481L480.165,730.812L474.809,757.895L425.28,683.113L443.637,795.627L416.959,764.524L398.5,880.465L379.738,767.014L332.791,879.094L344.972,753.641L301.305,797.69L345.751,688.92L302.531,720.827L311.9,689.221L190.359,756.17L248.457,691.248L132.989,713.195L255.448,647.759L166.607,640.657L274.565,612.5L244.573,593.81L317.818,592.613L207.175,539.94L247.866,533.441L144.467,437.154L289.015,515.504L243.592,437.645L314.172,490.33L301.77,428.196L371.922,542.419L363.298,469.679L380.622,465.26L398.5,288.299Z;M398.5,214L423.753,404.524L475.654,299.475L472.791,416.611L583.692,259.646L517.512,440.082L612.286,371.185L555.316,473.573L726.459,386.126L584.006,515.139L699.943,498.178L601.916,562.362L794.094,564.466L608.004,612.5L718.543,651.36L601.916,662.638L771.104,753.81L584.006,709.861L663.824,795.64L555.316,751.427L662.754,910.782L517.512,784.918L548.324,897.965L472.791,808.389L493.867,999.42L423.753,820.476L398.5,934.893L373.247,820.476L303.133,999.42L324.209,808.389L248.676,897.965L279.488,784.918L134.246,910.782L241.684,751.427L133.176,795.64L212.994,709.861L25.896,753.81L195.084,662.638L78.457,651.36L188.996,612.5L2.906,564.466L195.084,562.362L97.057,498.178L212.994,515.139L70.541,386.126L241.684,473.573L184.714,371.185L279.488,440.082L213.308,259.646L324.209,416.611L321.346,299.475L373.247,404.524L398.5,214Z"/>
                    </path>
                    <animate attributeName="opacity" values="1;0.6;1" keyTimes="0;0.5;1" dur="18s" begin="1.5s" repeatCount="indefinite"/>
                    <!-- <animateTransform attributeName="transform" attributeType="XML" type="rotate" values="0 398.5 612.5;-13 398.5 612.5;13 398.5 612.5;0 398.5 612.5" keyTimes="0;0.33;0.66;1" dur="42s" begin="-18s" repeatCount="indefinite"/> -->
                </g>
            </g>
            <g transform="matrix(1.245922,0,0,1.245922,11,-257.042874)">
                <g>
                    <path d="M398.5,214L445.119,408.249L538.381,322.034L529.124,448.703L710.06,364.039L587.256,521.6L712.81,540.761L608.004,612.5L787.009,701.175L587.256,703.4L650.557,813.509L529.124,776.297L571.403,971.536L445.119,816.751L398.5,934.893L351.881,816.751L225.597,971.536L267.876,776.297L146.443,813.509L209.744,703.4L9.991,701.175L188.996,612.5L84.19,540.761L209.744,521.6L86.94,364.039L267.876,448.703L258.619,322.034L351.881,408.249L398.5,214Z" style="fill:url(#_Radial3);">
                        <animate attributeName="d" dur="32s" begin="-12s" repeatCount="indefinite" keyTimes="0;0.5;1" values="M398.5,214L445.119,408.249L538.381,322.034L529.124,448.703L710.06,364.039L587.256,521.6L712.81,540.761L608.004,612.5L787.009,701.175L587.256,703.4L650.557,813.509L529.124,776.297L571.403,971.536L445.119,816.751L398.5,934.893L351.881,816.751L225.597,971.536L267.876,776.297L146.443,813.509L209.744,703.4L9.991,701.175L188.996,612.5L84.19,540.761L209.744,521.6L86.94,364.039L267.876,448.703L258.619,322.034L351.881,408.249L398.5,214Z;M398.5,301.29L436.223,447.227L486.831,429.079L475.812,515.554L579.332,468.291L477.474,574.468L523.592,583.949L544.145,612.5L744.315,691.43L531.675,676.634L523.685,712.332L466.049,697.204L488.556,799.502L419.287,703.574L398.5,802.378L358.272,788.751L257.219,905.871L332.72,694.986L297.632,692.939L298.515,660.65L180.024,662.366L280.021,612.5L161.496,558.406L236.406,534.44L210.567,462.628L354.285,557.057L337.346,485.512L368.68,481.851L398.5,353.602Z;M398.5,214L445.119,408.249L538.381,322.034L529.124,448.703L710.06,364.039L587.256,521.6L712.81,540.761L608.004,612.5L787.009,701.175L587.256,703.4L650.557,813.509L529.124,776.297L571.403,971.536L445.119,816.751L398.5,934.893L351.881,816.751L225.597,971.536L267.876,776.297L146.443,813.509L209.744,703.4L9.991,701.175L188.996,612.5L84.19,540.761L209.744,521.6L86.94,364.039L267.876,448.703L258.619,322.034L351.881,408.249L398.5,214Z"/>
                    </path>
                    <animate attributeName="opacity" values="1;0.6;1" keyTimes="0;0.5;1" dur="20s" begin="3s" repeatCount="indefinite"/>
                    <!-- <animateTransform attributeName="transform" attributeType="XML" type="rotate" values="0 398.5 612.5;16 398.5 612.5;-16 398.5 612.5;0 398.5 612.5" keyTimes="0;0.33;0.66;1" dur="48s" begin="-30s" repeatCount="indefinite"/> -->
                </g>
            </g>
            <g transform="matrix(1.121056,-0.300386,0.300386,1.121056,-123.2271,-73.859934)">
                <g>
                    <path d="M398.5,214L414.156,403.582L446.55,293.708L445.119,408.249L515.96,231.704L475.04,417.478L538.381,322.034L503.252,431.064L622.983,283.244L529.124,448.703L617.783,376.169L552.077,470.001L710.06,364.039L571.6,494.482L677.701,451.303L587.256,521.6L769.453,466.912L598.696,550.748L712.81,540.761L605.664,581.275L795.886,582.72L608.004,612.5L719.992,636.592L605.664,643.725L787.009,701.175L598.696,674.252L698.607,730.283L587.256,703.4L743.611,811.75L571.6,730.518L650.557,813.509L552.077,754.999L669.549,904.621L529.124,776.297L580.111,878.874L503.252,793.936L571.403,971.536L475.04,807.522L493.527,920.57L445.119,816.751L457.893,1006.549L414.156,821.418L398.5,934.893L382.844,821.418L339.107,1006.549L351.881,816.751L303.473,920.57L321.96,807.522L225.597,971.536L293.748,793.936L216.889,878.874L267.876,776.297L127.451,904.621L244.923,754.999L146.443,813.509L225.4,730.518L53.389,811.75L209.744,703.4L98.393,730.283L198.304,674.252L9.991,701.175L191.336,643.725L77.008,636.592L188.996,612.5L1.114,582.72L191.336,581.275L84.19,540.761L198.304,550.748L27.547,466.912L209.744,521.6L119.299,451.303L225.4,494.482L86.94,364.039L244.923,470.001L179.217,376.169L267.876,448.703L174.017,283.244L293.748,431.064L258.619,322.034L321.96,417.478L281.04,231.704L351.881,408.249L350.45,293.708L382.844,403.582L398.5,214Z" style="fill:url(#_Radial3);">
                        <animate attributeName="d" dur="38s" begin="-18s" repeatCount="indefinite" keyTimes="0;0.5;1" values="M398.5,214L414.156,403.582L446.55,293.708L445.119,408.249L515.96,231.704L475.04,417.478L538.381,322.034L503.252,431.064L622.983,283.244L529.124,448.703L617.783,376.169L552.077,470.001L710.06,364.039L571.6,494.482L677.701,451.303L587.256,521.6L769.453,466.912L598.696,550.748L712.81,540.761L605.664,581.275L795.886,582.72L608.004,612.5L719.992,636.592L605.664,643.725L787.009,701.175L598.696,674.252L698.607,730.283L587.256,703.4L743.611,811.75L571.6,730.518L650.557,813.509L552.077,754.999L669.549,904.621L529.124,776.297L580.111,878.874L503.252,793.936L571.403,971.536L475.04,807.522L493.527,920.57L445.119,816.751L457.893,1006.549L414.156,821.418L398.5,934.893L382.844,821.418L339.107,1006.549L351.881,816.751L303.473,920.57L321.96,807.522L225.597,971.536L293.748,793.936L216.889,878.874L267.876,776.297L127.451,904.621L244.923,754.999L146.443,813.509L225.4,730.518L53.389,811.75L209.744,703.4L98.393,730.283L198.304,674.252L9.991,701.175L191.336,643.725L77.008,636.592L188.996,612.5L1.114,582.72L191.336,581.275L84.19,540.761L198.304,550.748L27.547,466.912L209.744,521.6L119.299,451.303L225.4,494.482L86.94,364.039L244.923,470.001L179.217,376.169L267.876,448.703L174.017,283.244L293.748,431.064L258.619,322.034L321.96,417.478L281.04,231.704L351.881,408.249L350.45,293.708L382.844,403.582L398.5,214Z;M398.5,279.628L413.059,418.225L433.06,383.211L421.662,511.022L459.609,414.389L445.752,492.103L480.595,442.029L460.341,505.387L574.825,353.879L520.208,459.884L567.772,430.068L476.606,540.028L547.36,493.788L503.383,540.991L573.203,511.635L511.304,558.176L672.369,505.015L581.659,556.003L656.134,553.697L510.014,595.692L574.222,599.331L519.499,612.5L609.515,628.313L527.185,631.896L670.79,674.649L575.154,666.99L655.297,713.285L508.402,665.426L543.404,696.16L491.391,675.832L568.096,747.749L499.258,705.99L582.45,810.751L508.195,750.053L557.416,845.586L464.956,727.605L470.274,761.54L435.975,707.987L462.316,819.388L430.924,754.558L438.569,878.34L410.933,778.411L398.5,894.755L387.738,756.114L372.998,781.693L377.801,703.19L336.562,813.299L342.479,755.239L279.415,859.781L319.615,749.133L242.696,841.022L302.651,732.69L273.533,747.183L335.974,670.516L243.258,736.302L267.253,701.983L150.737,755.546L261.97,678.249L150.624,709.784L244.935,659.868L202.008,657.348L318.756,624.52L215.611,626.205L237.393,612.5L97.817,589.967L251.462,590.337L151.542,556.134L241.739,564.146L191.875,531.406L326.581,577.866L253.996,529.07L266.712,522.648L149.935,414.276L288.751,510.667L235.241,436.549L296.586,484.704L262.172,412.544L357.011,540.64L332.818,476.111L342.215,469.088L300.559,294.982L364.141,461.965L364.393,386.216L386.598,453.683L398.5,353.758Z;M398.5,214L414.156,403.582L446.55,293.708L445.119,408.249L515.96,231.704L475.04,417.478L538.381,322.034L503.252,431.064L622.983,283.244L529.124,448.703L617.783,376.169L552.077,470.001L710.06,364.039L571.6,494.482L677.701,451.303L587.256,521.6L769.453,466.912L598.696,550.748L712.81,540.761L605.664,581.275L795.886,582.72L608.004,612.5L719.992,636.592L605.664,643.725L787.009,701.175L598.696,674.252L698.607,730.283L587.256,703.4L743.611,811.75L571.6,730.518L650.557,813.509L552.077,754.999L669.549,904.621L529.124,776.297L580.111,878.874L503.252,793.936L571.403,971.536L475.04,807.522L493.527,920.57L445.119,816.751L457.893,1006.549L414.156,821.418L398.5,934.893L382.844,821.418L339.107,1006.549L351.881,816.751L303.473,920.57L321.96,807.522L225.597,971.536L293.748,793.936L216.889,878.874L267.876,776.297L127.451,904.621L244.923,754.999L146.443,813.509L225.4,730.518L53.389,811.75L209.744,703.4L98.393,730.283L198.304,674.252L9.991,701.175L191.336,643.725L77.008,636.592L188.996,612.5L1.114,582.72L191.336,581.275L84.19,540.761L198.304,550.748L27.547,466.912L209.744,521.6L119.299,451.303L225.4,494.482L86.94,364.039L244.923,470.001L179.217,376.169L267.876,448.703L174.017,283.244L293.748,431.064L258.619,322.034L321.96,417.478L281.04,231.704L351.881,408.249L350.45,293.708L382.844,403.582L398.5,214Z"/>
                    </path>
                    <animate attributeName="opacity" values="1;0.6;1" keyTimes="0;0.5;1" dur="22s" begin="4.5s" repeatCount="indefinite"/>
                    <!-- <animateTransform attributeName="transform" attributeType="XML" type="rotate" values="0 398.5 612.5;-12 398.5 612.5;12 398.5 612.5;0 398.5 612.5" keyTimes="0;0.33;0.66;1" dur="56s" begin="-40s" repeatCount="indefinite"/> -->
                </g>
            </g>
        </g>
    </mask>
    <g id="planet" transform="matrix(1.04011,0,0,1.04011,-31.323189,-9.968915)">
        <circle cx="507.5" cy="490.5" r="217.5" style="fill:rgb(23,23,23);"/>
    </g>
    <defs>
        <filter id="corona-mask-blur" x="-0.10" y="-0.10" width="1.16" height="1.16">
            <feGaussianBlur stdDeviation="7.8"/>
        </filter>
        <radialGradient id="teal-glow" cx="0" cy="0" r="1" gradientUnits="userSpaceOnUse" gradientTransform="matrix(310.5,0,0,310.5,310.5,342.5)">
            <stop offset="0" stop-color="#50C4B6" stop-opacity="1"/>
            <stop offset="1" stop-color="#50C4B6" stop-opacity="0"/>
        </radialGradient>
        <radialGradient id="red-glow" cx="0" cy="0" r="1" gradientUnits="userSpaceOnUse" gradientTransform="matrix(310.5,0,0,310.5,310.5,342.5)">
            <stop offset="0" stop-color="#EF6129" stop-opacity="1"/>
            <stop offset="1" stop-color="#EF6129" stop-opacity="0"/>
        </radialGradient>
        <radialGradient id="yellow-glow" cx="0" cy="0" r="1" gradientUnits="userSpaceOnUse" gradientTransform="matrix(310.5,0,0,310.5,310.5,342.5)">
            <stop offset="0" stop-color="#FF9E00" stop-opacity="1"/>
            <stop offset="1" stop-color="#FF9E00" stop-opacity="0"/>
        </radialGradient>

        <radialGradient id="_Radial3" cx="0" cy="0" r="1" gradientUnits="userSpaceOnUse" gradientTransform="matrix(398.5,0,0,398.5,398.5,612.5)"><stop offset="0" style="stop-color:white;stop-opacity:1"/><stop offset="0.44" style="stop-color:white;stop-opacity:0.2"/><stop offset="1" style="stop-color:white;stop-opacity:0"/></radialGradient>
    </defs>
</svg>
