<svg width="1200" height="600" viewBox="0 0 1200 600" xmlns="http://www.w3.org/2000/svg">
  <defs>
    <!-- Radial gradients for eclipse glow effects -->
    <radialGradient id="tealGlow" cx="50%" cy="50%">
      <stop offset="0%" style="stop-color:#50C4B6;stop-opacity:0.8"/>
      <stop offset="20%" style="stop-color:#50C4B6;stop-opacity:0.5"/>
      <stop offset="50%" style="stop-color:#50C4B6;stop-opacity:0.2"/>
      <stop offset="100%" style="stop-color:#50C4B6;stop-opacity:0"/>
    </radialGradient>

    <radialGradient id="yellowOrangeGlow" cx="50%" cy="50%">
      <stop offset="0%" style="stop-color:#FF9E00;stop-opacity:0.8"/>
      <stop offset="20%" style="stop-color:#FF9E00;stop-opacity:0.5"/>
      <stop offset="50%" style="stop-color:#FF9E00;stop-opacity:0.2"/>
      <stop offset="100%" style="stop-color:#FF9E00;stop-opacity:0"/>
    </radialGradient>


    <radialGradient id="redOrangeGlow" cx="50%" cy="50%">
      <stop offset="0%" style="stop-color:#EF6129;stop-opacity:0.8"/>
      <stop offset="20%" style="stop-color:#EF6129;stop-opacity:0.5"/>
      <stop offset="50%" style="stop-color:#EF6129;stop-opacity:0.2"/>
      <stop offset="100%" style="stop-color:#EF6129;stop-opacity:0"/>
    </radialGradient>

    <!-- Linear gradient for shooting stars -->
    <linearGradient id="shootingStarGradient" x1="0%" y1="0%" x2="100%" y2="0%">
      <stop offset="0%" style="stop-color:white;stop-opacity:0"/>
      <stop offset="50%" style="stop-color:white;stop-opacity:0.8"/>
      <stop offset="100%" style="stop-color:white;stop-opacity:0"/>
    </linearGradient>

    <!-- Eclipse mask for the center 'o' -->
    <mask id="eclipseMask">
      <rect width="100%" height="100%" fill="white"/>
      <circle cx="600" cy="300" r="65" fill="black"/>
    </mask>
  </defs>

  <!-- Dark space background -->
  <rect width="1200" height="600" fill="#0a0a0f"/>

  <!-- Star field -->
  <g id="starfield">
    <!-- Static stars -->
    <circle cx="120" cy="80" r="1" fill="white" opacity="0.8"/>
    <circle cx="240" cy="150" r="1.5" fill="white" opacity="0.6"/>
    <circle cx="380" cy="100" r="0.8" fill="white" opacity="0.9"/>
    <circle cx="520" cy="180" r="1" fill="white" opacity="0.7"/>
    <circle cx="680" cy="120" r="1.2" fill="white" opacity="0.8"/>
    <circle cx="820" cy="90" r="0.9" fill="white" opacity="0.6"/>
    <circle cx="950" cy="140" r="1.3" fill="white" opacity="0.8"/>
    <circle cx="1080" cy="110" r="1" fill="white" opacity="0.7"/>

    <circle cx="150" cy="450" r="1.2" fill="white" opacity="0.7"/>
    <circle cx="320" cy="480" r="0.9" fill="white" opacity="0.8"/>
    <circle cx="480" cy="520" r="1.4" fill="white" opacity="0.6"/>
    <circle cx="720" cy="470" r="1" fill="white" opacity="0.9"/>
    <circle cx="880" cy="500" r="1.1" fill="white" opacity="0.7"/>
    <circle cx="1020" cy="460" r="0.8" fill="white" opacity="0.8"/>

    <!-- Twinkling stars with more pronounced effect -->
    <circle cx="200" cy="250" r="1.5" fill="white">
      <animate attributeName="opacity" values="0.2;1;0.2" dur="2s" repeatCount="indefinite"/>
      <animate attributeName="r" values="1.5;2;1.5" dur="2s" repeatCount="indefinite"/>
    </circle>
    <circle cx="350" cy="320" r="1.2" fill="white">
      <animate attributeName="opacity" values="0.3;1;0.3" dur="2.5s" begin="0.5s" repeatCount="indefinite"/>
      <animate attributeName="r" values="1.2;1.8;1.2" dur="2.5s" begin="0.5s" repeatCount="indefinite"/>
    </circle>
    <circle cx="850" cy="280" r="1.3" fill="white">
      <animate attributeName="opacity" values="0.2;0.9;0.2" dur="3s" begin="1s" repeatCount="indefinite"/>
      <animate attributeName="r" values="1.3;1.9;1.3" dur="3s" begin="1s" repeatCount="indefinite"/>
    </circle>
    <circle cx="1000" cy="350" r="1" fill="white">
      <animate attributeName="opacity" values="0.3;1;0.3" dur="2.2s" begin="1.5s" repeatCount="indefinite"/>
      <animate attributeName="r" values="1;1.5;1" dur="2.2s" begin="1.5s" repeatCount="indefinite"/>
    </circle>
    <circle cx="100" cy="350" r="1.4" fill="white">
      <animate attributeName="opacity" values="0.2;0.8;0.2" dur="2.8s" begin="0.3s" repeatCount="indefinite"/>
      <animate attributeName="r" values="1.4;2;1.4" dur="2.8s" begin="0.3s" repeatCount="indefinite"/>
    </circle>

    <!-- Smaller ambient stars -->
    <circle cx="180" cy="380" r="0.5" fill="white" opacity="0.4"/>
    <circle cx="260" cy="420" r="0.6" fill="white" opacity="0.5"/>
    <circle cx="420" cy="390" r="0.5" fill="white" opacity="0.3"/>
    <circle cx="550" cy="410" r="0.7" fill="white" opacity="0.4"/>
    <circle cx="750" cy="380" r="0.5" fill="white" opacity="0.5"/>
    <circle cx="920" cy="420" r="0.6" fill="white" opacity="0.3"/>
    <circle cx="1100" cy="390" r="0.5" fill="white" opacity="0.4"/>

    <circle cx="130" cy="180" r="0.5" fill="white" opacity="0.3"/>
    <circle cx="300" cy="220" r="0.6" fill="white" opacity="0.4"/>
    <circle cx="470" cy="240" r="0.5" fill="white" opacity="0.5"/>
    <circle cx="650" cy="200" r="0.7" fill="white" opacity="0.3"/>
    <circle cx="780" cy="230" r="0.5" fill="white" opacity="0.4"/>
    <circle cx="940" cy="210" r="0.6" fill="white" opacity="0.5"/>
    <circle cx="1070" cy="240" r="0.5" fill="white" opacity="0.3"/>
  </g>

  <!-- Shooting stars (rare) -->
  <g id="shootingStars">
    <!-- First shooting star -->
    <g opacity="0">
      <line x1="100" y1="100" x2="200" y2="150" stroke="url(#shootingStarGradient)" stroke-width="2"/>
      <circle cx="200" cy="150" r="2" fill="white"/>
      <animateTransform
        attributeName="transform"
        type="translate"
        values="0,0; 400,200; 800,400"
        dur="1.5s"
        begin="5s;shootingStar1.end+15s"
        id="shootingStar1"/>
      <animate
        attributeName="opacity"
        values="0;1;0"
        dur="1.5s"
        begin="5s;shootingStar1.end+15s"/>
    </g>

    <!-- Second shooting star -->
    <g opacity="0">
      <line x1="900" y1="50" x2="850" y2="100" stroke="url(#shootingStarGradient)" stroke-width="1.5"/>
      <circle cx="850" cy="100" r="1.5" fill="white"/>
      <animateTransform
        attributeName="transform"
        type="translate"
        values="0,0; -300,180; -600,360"
        dur="1.2s"
        begin="12s;shootingStar2.end+18s"
        id="shootingStar2"/>
      <animate
        attributeName="opacity"
        values="0;0.8;0"
        dur="1.2s"
        begin="12s;shootingStar2.end+18s"/>
    </g>

    <!-- Third shooting star -->
    <g opacity="0">
      <line x1="600" y1="20" x2="620" y2="60" stroke="url(#shootingStarGradient)" stroke-width="1"/>
      <circle cx="620" cy="60" r="1" fill="white"/>
      <animateTransform
        attributeName="transform"
        type="translate"
        values="0,0; 150,200; 300,400"
        dur="1s"
        begin="20s;shootingStar3.end+25s"
        id="shootingStar3"/>
      <animate
        attributeName="opacity"
        values="0;0.6;0"
        dur="1s"
        begin="20s;shootingStar3.end+25s"/>
    </g>
  </g>

  <!-- Eclipse effect matching the PNG (teal left, orange right) -->
  <g id="eclipse">
    <!-- Left teal glow -->
    <ellipse cx="550" cy="300" rx="90" ry="90" fill="url(#tealGlow)" opacity="0.7">
      <animate attributeName="rx" values="90;95;90" dur="5s" repeatCount="indefinite"/>
      <animate attributeName="ry" values="90;95;90" dur="5s" repeatCount="indefinite"/>
      <animate attributeName="opacity" values="0.7;0.8;0.7" dur="5s" repeatCount="indefinite"/>
    </ellipse>

    <!-- Right yellow-orange glow -->
    <ellipse cx="650" cy="300" rx="90" ry="90" fill="url(#yellowOrangeGlow)" opacity="0.7">
      <animate attributeName="rx" values="90;95;90" dur="5s" begin="0.8s" repeatCount="indefinite"/>
      <animate attributeName="ry" values="90;95;90" dur="5s" begin="0.8s" repeatCount="indefinite"/>
      <animate attributeName="opacity" values="0.7;0.8;0.7" dur="5s" begin="0.8s" repeatCount="indefinite"/>
    </ellipse>

    <!-- Bottom accent with red-orange (subtle) -->
    <ellipse cx="600" cy="340" rx="80" ry="60" fill="url(#redOrangeGlow)" opacity="0.3">
      <animate attributeName="rx" values="80;85;80" dur="5s" begin="1.6s" repeatCount="indefinite"/>
      <animate attributeName="ry" values="60;65;60" dur="5s" begin="1.6s" repeatCount="indefinite"/>
    </ellipse>

    <!-- Black hole center -->
    <circle cx="600" cy="300" r="65" fill="#0a0a0f"/>

    <!-- Subtle inner ring -->
    <circle cx="600" cy="300" r="64" fill="none" stroke="rgba(255,255,255,0.1)" stroke-width="1"/>
  </g>

  <!-- Text: "arora" as paths from the provided file -->
  <g id="text" mask="url(#eclipseMask)">
    <!-- Letter 'a' -->
    <g transform="matrix(1,0,0,1,410.71,334.56)">
      <g transform="matrix(130,0,0,130,0,0)">
        <path d="M0.439,-0.5L0.439,-0.441C0.403,-0.486 0.349,-0.514 0.276,-0.514C0.143,-0.514 0.033,-0.399 0.033,-0.25C0.033,-0.101 0.143,0.014 0.276,0.014C0.349,0.014 0.403,-0.014 0.439,-0.059L0.439,-0L0.568,-0L0.568,-0.5L0.439,-0.5ZM0.3,-0.109C0.221,-0.109 0.162,-0.166 0.162,-0.25C0.162,-0.334 0.221,-0.391 0.3,-0.391C0.38,-0.391 0.439,-0.334 0.439,-0.25C0.439,-0.166 0.38,-0.109 0.3,-0.109Z" style="fill:white;fill-rule:nonzero;"/>
      </g>
    </g>
    <!-- Letter 'r' -->
    <g transform="matrix(1,0,0,1,488.33,335.21)">
      <g transform="matrix(130,0,0,130,0,0)">
        <path d="M0.188,-0.414L0.188,-0.5L0.059,-0.5L0.059,-0L0.188,-0L0.188,-0.239C0.188,-0.344 0.273,-0.374 0.34,-0.366L0.34,-0.51C0.277,-0.51 0.214,-0.482 0.188,-0.414Z" style="fill:white;fill-rule:nonzero;"/>
      </g>
    </g>
    <!-- Letter 'o' (will be masked by eclipse) -->
    <circle cx="600" cy="300" r="65" fill="white" opacity="0"/>
    <!-- Letter 'r' -->
    <g transform="matrix(1,0,0,1,661.33,334.04)">
      <g transform="matrix(130,0,0,130,0,0)">
        <path d="M0.188,-0.414L0.188,-0.5L0.059,-0.5L0.059,-0L0.188,-0L0.188,-0.239C0.188,-0.344 0.273,-0.374 0.34,-0.366L0.34,-0.51C0.277,-0.51 0.214,-0.482 0.188,-0.414Z" style="fill:white;fill-rule:nonzero;"/>
      </g>
    </g>
    <!-- Letter 'a' -->
    <g transform="matrix(1,0,0,1,708.71,334.04)">
      <g transform="matrix(130,0,0,130,0,0)">
        <path d="M0.439,-0.5L0.439,-0.441C0.403,-0.486 0.349,-0.514 0.276,-0.514C0.143,-0.514 0.033,-0.399 0.033,-0.25C0.033,-0.101 0.143,0.014 0.276,0.014C0.349,0.014 0.403,-0.014 0.439,-0.059L0.439,-0L0.568,-0L0.568,-0.5L0.439,-0.5ZM0.3,-0.109C0.221,-0.109 0.162,-0.166 0.162,-0.25C0.162,-0.334 0.221,-0.391 0.3,-0.391C0.38,-0.391 0.439,-0.334 0.439,-0.25C0.439,-0.166 0.38,-0.109 0.3,-0.109Z" style="fill:white;fill-rule:nonzero;"/>
      </g>
    </g>
  </g>
</svg>
